<?xml version="1.0" encoding="utf-8"?>
<!-- Generator: Adobe Illustrator 22.1.0, SVG Export Plug-In . SVG Version: 6.00 Build 0)  -->
<svg version="1.1" id="Layer_1" xmlns="http://www.w3.org/2000/svg" xmlns:xlink="http://www.w3.org/1999/xlink" x="0px" y="0px"
	 viewBox="0 0 179.1 178.6" style="enable-background:new 0 0 179.1 178.6;" xml:space="preserve">
<style type="text/css">
	.st0{fill:#468588;}
	.st1{fill:#E0C189;}
</style>
<title>charm</title>
<g id="Layer_2_1_">
	<g id="Layer_2-2">
		<path class="st0" d="M92.7,0c10-0.3,18.6,4.8,25.4,20.5s15.7,48.8,8.1,81c-7.6,32.2-23,58-25.7,67.1s-16.1,16.4-25.6,0.9
			S46.8,65.3,50.5,57.7c3.6-7.6,7.2-9.7,8.8-15.3c1.6-5.5-5.3-9,1.9-18.1S82.7,0.3,92.7,0z"/>
		<path class="st1" d="M96.5,84.9c5.1-4.1,1.3-9.5,4.5-12c3.2-2.5,6.2,11.7,11.3,12S123.2,80,122,88s0.1,16.8-5.3,19.3
			s0.2-9.2-2.9-12.1s-2.9,10-5.6,14.5s-17,7-13.4-1.9c3.6-8.9,6.9-9.4,4.3-13.8S92.3,88.3,96.5,84.9z"/>
		<path class="st1" d="M78.6,136.6c-5.7-20.1-14.1-39.6-13.3-28.2c0.9,11.4-0.2,22.9,7.9,32.9S80.6,143.9,78.6,136.6z"/>
		<path class="st1" d="M77.5,17.6c4.2-3.9,12.6-0.8,12.5,4.9s-4.4,12.8-9,8.7s-13.7,3.6-8.5-5L77.5,17.6z"/>
		<path class="st1" d="M66.9,47.6c2.2-1.7,2.9,14.4,9.2,19.7c-2.9,14.3,6.2,40.6,3,35.3c-3.2-5.3-5.4-15.7-6.4-25.8S69,70,67.9,68.1
			S63.3,50.3,66.9,47.6z"/>
	</g>
</g>
</svg>
