<svg xmlns="http://www.w3.org/2000/svg" viewBox="0 0 79.05 178.62"><defs><style>.cls-1{fill:#468588;}.cls-2{fill:#e0c189;}</style></defs><title>charm</title><g id="Layer_2" data-name="Layer 2"><g id="Layer_2-2" data-name="Layer 2"><path class="cls-1" d="M42.68,0c10-.28,18.62,4.85,25.38,20.54s15.68,48.82,8.09,81-23,58-25.74,67.11-16.08,16.4-25.61.85S-3.18,65.27.47,57.65s7.19-9.73,8.79-15.28-5.33-9,1.92-18.14S32.65.3,42.68,0Z"/><path class="cls-2" d="M46.49,84.88c5.14-4.11,1.3-9.54,4.54-12s6.25,11.66,11.31,12S73.23,80,72,88s.1,16.8-5.35,19.28.21-9.21-2.89-12.12-2.89,10-5.6,14.54-17,7-13.44-1.86S51.61,98.45,49,94,42.27,88.27,46.49,84.88Z"/><path class="cls-2" d="M28.55,136.6C22.9,116.51,14.41,97,15.28,108.39s-.24,22.93,7.9,32.92S30.62,143.92,28.55,136.6Z"/><path class="cls-2" d="M27.46,17.55c4.24-3.88,12.64-.78,12.47,4.88s-4.41,12.75-9,8.7-13.68,3.6-8.55-5Z"/><path class="cls-2" d="M16.93,47.57c2.22-1.66,2.92,14.4,9.19,19.66-2.88,14.27,6.17,40.58,3,35.32s-5.42-15.71-6.41-25.77S19,70,17.94,68.14,13.27,50.32,16.93,47.57Z"/></g></g></svg>